<svg xmlns="http://www.w3.org/2000/svg" xmlns:xlink="http://www.w3.org/1999/xlink" version="1.1" x="0px" y="0px" viewBox="0 0 100 125" style="enable-background:new 0 0 100 100;" xml:space="preserve"><g><path d="M73.775,24.354c-10.524,0-37.026,0-47.551,0C11.742,24.354,0,35.835,0,50c0,14.163,11.742,25.646,26.225,25.646   c10.524,0,15.768-14.812,23.775-14.812s13.251,14.812,23.775,14.812C88.258,75.646,100,64.163,100,50   C100,35.835,88.258,24.354,73.775,24.354z M25.893,58.651c-6.746,0-12.215-5.909-12.215-13.196c0-7.29,24.43-7.29,24.43,0   C38.107,52.742,32.638,58.651,25.893,58.651z M74.107,58.651c-6.745,0-12.215-5.909-12.215-13.196c0-7.29,24.43-7.29,24.43,0   C86.322,52.742,80.854,58.651,74.107,58.651z"/></g><text x="0" y="115" fill="#000000" font-size="5px" font-weight="bold" font-family="'Helvetica Neue', Helvetica, Arial-Unicode, Arial, Sans-serif">Created by b farias</text><text x="0" y="120" fill="#000000" font-size="5px" font-weight="bold" font-family="'Helvetica Neue', Helvetica, Arial-Unicode, Arial, Sans-serif">from the Noun Project</text></svg>