<svg xmlns="http://www.w3.org/2000/svg" xmlns:xlink="http://www.w3.org/1999/xlink" version="1.1" x="0px" y="0px" viewBox="0 0 100 125" enable-background="new 0 0 100 100" xml:space="preserve"><path d="M38.897,45.675c1.61-1.05,0.904-1.829-0.419-1.05c-0.615,0.362-5.179,3.5-7.839,6.579c-3.78,1.54-7.139,2.38-8.819,2.38  c-1.68,0-8.259,1.4-9.099,2.52C12.08,56.959,7.12,79.088,5.055,95h89.244c-2.065-15.912-7.025-38.043-7.666-38.898  c-0.84-1.12-7.419-2.519-9.099-2.519c-1.68,0-5.04-0.839-8.819-2.379c-2.66-3.08-7.224-6.217-7.839-6.579  c-1.324-0.779-2.03,0-0.42,1.05c1.61,1.05,2.03,6.929,2.03,6.929s0.77,9.869-1.75,18.2c-2.52,8.331-8.399,14.486-8.399,14.486  l-1.82-29.677c0,0,2.03-3.01,1.89-3.92c-0.087-0.569-1.134-1.604-1.905-2.3c2.428-2.71,5.316-3.294,6.256-3.607  c0.94-0.313,0.965-1.105,0.965-1.105l0.06-1.952c0,0,2.848-2.105,3.709-8.757c1.723,0.501,2.35-2.03,2.443-3.647  c0.102-1.562,1.041-6.432-1.068-5.998c0.431-3.252,0.781-6.191,0.627-7.747C62.967,11.12,59.214,5.416,49.727,5  C41.662,5.417,36.429,11.124,35.9,16.586c-0.152,1.556,0.159,4.493,0.59,7.75c-2.107-0.44-1.199,4.438-1.107,5.999  c0.102,1.617,0.542,4.156,2.27,3.655c0.858,6.653,3.488,8.774,3.488,8.774v1.926c0,0,0.036,0.783,0.976,1.096  s4.241,0.898,6.669,3.607c-0.771,0.695-1.785,1.73-1.873,2.3c-0.14,0.91,1.906,3.92,1.906,3.92l-1.812,29.677  c0,0-5.875-6.155-8.395-14.486c-2.52-8.331-1.748-18.2-1.748-18.2S37.287,46.725,38.897,45.675z"/><text x="0" y="115" fill="#000000" font-size="5px" font-weight="bold" font-family="'Helvetica Neue', Helvetica, Arial-Unicode, Arial, Sans-serif">Created by Nicky Knicky</text><text x="0" y="120" fill="#000000" font-size="5px" font-weight="bold" font-family="'Helvetica Neue', Helvetica, Arial-Unicode, Arial, Sans-serif">from the Noun Project</text></svg>