<svg xmlns="http://www.w3.org/2000/svg" xmlns:xlink="http://www.w3.org/1999/xlink" version="1.1" x="0px" y="0px" viewBox="0 0 140.6 125" style="enable-background:new 0 0 140.6 100;" xml:space="preserve"><g><path d="M61.9,40.2c0,1.9,0.7,3.6,1.7,4.9c1.2,1.4,2.9,2.1,5.2,2.1h1.7v-1c-1.2-1.2-2.1-3.6-2.1-6.1c0-2.6,0.9-4.9,2.1-6.2v-1h-2.3   C64.2,32.8,61.9,36.6,61.9,40.2z"/><path d="M123.8,18.2c-1.9,1.2-4.2,2.3-6.9,2.3h-100c-0.5,2.9-1.7,4.5-4.2,5.4c-3.8,1.4-6.9,2.9-8.7,5.4c-0.5,0.9-0.2,2.4,0.9,2.4   c8.3,0,12.5,4.3,12.5,10.2c0,1.9-0.3,4.2-1.4,6.4L9.2,63.5C4.5,72.5,0,83.7,0,90c0,4.2,1.7,5.5,3.3,5.7l31.4,4.2   c3.5,0.5,5-0.5,6.1-3.5l9.9-36.8c1.6-6.1,5-8.5,12.3-8.5h12.5c8.1,0,11.8-4.2,11.8-11.8c0-7.8,4-10.6,9.2-10.6h20.8   c1.6,0,2.3-0.5,2.3-2.3h19.6c0.9,0,1.6-0.5,1.6-1.7v-9.2h-8.5C128.3,15.6,125.9,16.8,123.8,18.2z M82.5,46.1   c-1.6,1.7-3.8,2.8-6.4,2.8h-7.3c-2.8,0-4.9-1-6.4-2.8c-1.4-1.6-2.1-3.6-2.1-5.9c0-4.3,2.8-9,8-9h8.1c5.2,0,8,4.7,8,9   C84.4,42.5,83.7,44.6,82.5,46.1z"/><path d="M139.1,2.8h-2.8c0-0.9-0.3-0.9-0.7-1L133.9,1h-1.9l-2.3,0.7c-0.7,0.2-0.9,0.7-0.9,1H88.1l-0.3,0.7H68.1l-0.5-0.7H35.2   c0-1.6-1.9-1.2-1.9-2.3c0-0.3-0.3-0.5-0.7-0.5h-2.1c-0.3,0-0.7,0.2-0.7,0.5c0,1-1.9,0.7-1.9,2.3h-3.5c-1.6,0-2.6,0.3-3.6,1.9   l-1.6,3.1c-0.7,0.3-1,0.3-1.7-0.5c-0.7-0.9-1.7-1.2-2.9-1.2c-1.9,0-4,1.2-4,3.6c0,1.7,0.9,3.1,2.8,4.2c1.2,0.5,2.3,1.4,3.1,2.4   c0.5,0.7,0.7,1.4,0.5,2.4h11.4V8c0-0.5,0.3-0.9,0.7-0.9C29.6,7.1,30,7.5,30,8v10.8h2.6V8c0-0.5,0.3-0.9,0.7-0.9   c0.5,0,0.9,0.3,0.9,0.9v10.8h2.4V8c0-0.5,0.5-0.9,0.9-0.9c0.5,0,0.9,0.3,0.9,0.9v10.8h2.4V8c0-0.5,0.3-0.9,0.9-0.9   c0.5,0,0.9,0.3,0.9,0.9v10.8h2.4V8c0-0.5,0.3-0.9,0.9-0.9c0.3,0,0.9,0.3,0.9,0.9v10.8h2.4V8c0-0.5,0.3-0.9,0.9-0.9   c0.3,0,0.7,0.3,0.7,0.9v10.8h2.6V8c0-0.5,0.3-0.9,0.9-0.9c0.3,0,0.7,0.3,0.7,0.9v10.8h62.1c2.4,0,4.2-0.9,6.1-1.9   c2.4-1.4,5-2.8,9.2-2.8h8.5V4.3C140.6,3.1,140.1,2.8,139.1,2.8z M14.4,11.4c-1,0-1.7-0.7-1.7-1.6c0-1,0.7-1.7,1.7-1.7   c0.9,0,1.6,0.7,1.6,1.7C16,10.8,15.3,11.4,14.4,11.4z M83.2,11.6H72.8c-4.3,0-6.1-2.9-6.2-5.4c0-0.5,0.2-0.9,0.7-0.9   c0.3,0,0.9,0.3,0.9,0.7c0.2,1,0.7,4,4.7,4h10.4c4.2,0,4.7-2.9,4.7-4c0-0.3,0.5-0.7,0.9-0.7c0.5,0,0.9,0.3,0.9,0.9   C89.5,8.7,87.6,11.6,83.2,11.6z"/></g><text x="0" y="115" fill="#000000" font-size="5px" font-weight="bold" font-family="'Helvetica Neue', Helvetica, Arial-Unicode, Arial, Sans-serif">Created by Viet EDC</text><text x="0" y="120" fill="#000000" font-size="5px" font-weight="bold" font-family="'Helvetica Neue', Helvetica, Arial-Unicode, Arial, Sans-serif">from the Noun Project</text></svg>