<svg xmlns="http://www.w3.org/2000/svg" xmlns:xlink="http://www.w3.org/1999/xlink" version="1.1" x="0px" y="0px" viewBox="0 0 512 640" enable-background="new 0 0 512 512" xml:space="preserve"><path d="M413.852,315.686c-27.843,0-52.997,11.656-70.855,30.313L194.973,272c0.844-5.156,1.297-10.5,1.297-16  c0-5.5-0.453-10.812-1.313-16l148.039-73.997c17.858,18.687,43.015,30.343,70.855,30.343c54.2,0,98.136-43.999,98.136-98.153  c0-54.186-43.936-98.184-98.136-98.184c-54.187,0-98.104,43.999-98.104,98.184c0,5.5,0.453,10.656,1.281,16L169.021,188.19  c-17.875-18.687-43.014-30.342-70.872-30.342c-54.201,0-98.136,43.998-98.136,98.152c0,54.185,43.936,98.185,98.136,98.185  c27.858,0,52.997-11.688,70.872-30.344l148.008,73.998c-0.828,5.342-1.281,10.654-1.281,15.998c0,54.154,43.92,98.152,98.104,98.152  c54.2,0,98.136-43.998,98.136-98.152C511.987,359.686,468.052,315.686,413.852,315.686z"/><text x="0" y="527" fill="#000000" font-size="5px" font-weight="bold" font-family="'Helvetica Neue', Helvetica, Arial-Unicode, Arial, Sans-serif">Created by Hassan ali</text><text x="0" y="532" fill="#000000" font-size="5px" font-weight="bold" font-family="'Helvetica Neue', Helvetica, Arial-Unicode, Arial, Sans-serif">from the Noun Project</text></svg>