<?xml version="1.0" encoding="utf-8"?>
<!-- Generator: Adobe Illustrator 23.0.1, SVG Export Plug-In . SVG Version: 6.00 Build 0)  -->
<svg version="1.1" id="Layer_1" xmlns="http://www.w3.org/2000/svg" xmlns:xlink="http://www.w3.org/1999/xlink" x="0px" y="0px"
	 viewBox="0 0 80 80" style="enable-background:new 0 0 80 80;" xml:space="preserve">
<path d="M40,80c22.1,0,40-17.9,40-40S62.1,0,40,0S0,17.9,0,40S17.9,80,40,80z M7.5,59.7l7.1-4.1c1.5,2.4,3.3,4.6,5.4,6.5l-5.2,6.2
	C12,65.9,9.5,63,7.5,59.7z M2.7,47.4l8-1.4c0.6,2.8,1.6,5.5,2.9,7.9L6.6,58C4.8,54.7,3.5,51.2,2.7,47.4z M2,40c0-2,0.1-3.9,0.4-5.8
	l8,1.4c-0.2,1.4-0.3,2.9-0.3,4.3c0,1.4,0.1,2.7,0.3,4.1l-8,1.4C2.1,43.7,2,41.9,2,40z M6.7,21.8l7.1,4.1c-1.3,2.4-2.3,5.1-2.9,7.9
	l-8-1.4C3.6,28.5,4.9,25,6.7,21.8z M26.1,4.6l2.8,7.7c-2.6,1.1-5,2.5-7.2,4.2l-5.2-6.2C19.3,7.9,22.6,6,26.1,4.6z M63.6,10.2
	l-5.2,6.2c-2.2-1.7-4.6-3.1-7.2-4.2l2.8-7.7C57.4,6,60.7,7.9,63.6,10.2z M49.2,11.6c-2.6-0.8-5.4-1.3-8.2-1.4V2
	c3.8,0.1,7.5,0.8,11,1.9L49.2,11.6z M39,10.2c-2.9,0.1-5.6,0.6-8.2,1.4L28,4c3.5-1.2,7.2-1.8,11-1.9C39,2,39,10.2,39,10.2z M40,12.1
	c15.4,0,27.9,12.5,27.9,27.9S55.4,67.9,40,67.9c-15.4,0-27.9-12.5-27.9-27.9S24.6,12.1,40,12.1z M77.2,32.3l-8,1.4
	c-0.6-2.8-1.6-5.4-2.9-7.9l7.1-4.1C75.1,25,76.4,28.5,77.2,32.3z M78,40c0,1.9-0.1,3.7-0.4,5.5l-8-1.4c0.2-1.3,0.3-2.7,0.3-4.1
	c0-1.5-0.1-2.9-0.3-4.3l8-1.4C77.9,36.1,78,38,78,40z M73.4,58l-7.1-4.1c1.3-2.5,2.3-5.1,2.9-7.9l8,1.4C76.5,51.2,75.2,54.7,73.4,58
	z M54,75.3l-2.8-7.7c2.6-1.1,5.1-2.5,7.3-4.2l5.2,6.2C60.8,72,57.5,73.9,54,75.3z M16.3,69.7l5.2-6.2c2.2,1.7,4.6,3.2,7.3,4.2
	L26,75.3C22.5,73.9,19.2,72,16.3,69.7z M30.7,68.4c2.6,0.9,5.4,1.4,8.3,1.5V78c-3.9-0.1-7.6-0.8-11.1-2L30.7,68.4z M41,69.8
	c2.9-0.1,5.7-0.6,8.3-1.5l2.8,7.7c-3.5,1.2-7.2,1.9-11.1,2V69.8z M65.2,68.4L60,62.1c2.1-1.9,3.9-4.1,5.4-6.5l7.1,4.1
	C70.5,63,68,65.9,65.2,68.4z M72.3,20l-7.1,4.1c-1.5-2.4-3.3-4.5-5.4-6.4l5.2-6.2C67.9,14,70.3,16.9,72.3,20z M14.9,11.5l5.2,6.2
	c-2.1,1.9-3.9,4-5.4,6.4L7.7,20C9.7,16.9,12.1,14,14.9,11.5z"/>
<path d="M17.4,40.9h17c0.4,2.4,2.3,4.3,4.7,4.7v17c0,0.6,0.4,1,1,1s1-0.4,1-1v-17c2.4-0.4,4.3-2.3,4.7-4.7h17c0.6,0,1-0.4,1-1
	s-0.4-1-1-1h-17c-0.4-2.4-2.3-4.3-4.7-4.7v-17c0-0.6-0.4-1-1-1s-1,0.4-1,1v17c-2.4,0.4-4.3,2.3-4.7,4.7h-17c-0.6,0-1,0.4-1,1
	S16.8,40.9,17.4,40.9z M40,36.1c2.1,0,3.8,1.7,3.8,3.8s-1.7,3.8-3.8,3.8s-3.8-1.7-3.8-3.8S37.9,36.1,40,36.1z"/>
</svg>
